<?xml version="1.0" encoding="UTF-8"?> <svg xmlns="http://www.w3.org/2000/svg" xmlns:xlink="http://www.w3.org/1999/xlink" xmlns:v="https://vecta.io/nano" viewBox="0 0 270.32 303.95"><path d="M135.18 0C60.64 0 0 60.56 0 135s60.64 135 135.18 135 135.14-60.57 135.14-135S209.69 0 135.18 0zm0 266.48c-72.6 0-131.66-59-131.66-131.5S62.58 3.51 135.18 3.51 266.8 62.5 266.8 135s-59.05 131.48-131.62 131.48zM135.09 17a117.23 117.23 0 1 0 117.38 117.24A117.3 117.3 0 0 0 135.09 17zm-6.49 153.41a57.7 57.7 0 0 1-21.34 27.14 54.1 54.1 0 0 1-17 8.28c-9.7 2.64-40.91 1.5-40.91 1.5V74.42l30.22-25.51v72.54c6.12-9.54 12.78-15.2 19.39-17a20 20 0 0 1 18.19 3.55q8.22 6.23 12.6 19.77a62.38 62.38 0 0 1-1.15 42.64zM139.44 231V94.33H119l9.11-21.68h10.43l-.1-9.57 30.65-31.71.23 41.28h22.86l-22.5 21.65v84.17h25.56zm56.35-153.75a16.66 16.66 0 1 1 16.66 16.5 16.59 16.59 0 0 1-16.66-16.5zm6.66 130.5v-84.91L231 96.05v77.11zM98 122.74c-3.11-2.56-6.24-3.39-9.34-2.56a10.22 10.22 0 0 0-6.33 5.12 19.88 19.88 0 0 0-2.24 10.09l.68 59.06 10.19-.31s8.42 1.33 11.13-5.9a87.62 87.62 0 0 0 5.34-28.43 83.5 83.5 0 0 0-3.78-28.1 18.72 18.72 0 0 0-5.65-8.97z"></path><use xlink:href="#B"></use><path d="M58.06 300.75a1.63 1.63 0 0 1 1.65-1.65 1.56 1.56 0 0 1 1.66 1.57 1.65 1.65 0 0 1-1.68 1.74 1.59 1.59 0 0 1-1.63-1.66z"></path><use xlink:href="#B" x="13.57"></use><path d="M72.49 302.19c-.38-.16-.46-.27-.46-.79l.14-3.06c.03-.38.11-.6.3-.6s.24.22.24.38a4.08 4.08 0 0 0 .22 1.19c.51 1.72 2.31 2.28 3.8 2.28a3 3 0 0 0 3.27-2.93c0-1-.25-2-2.36-3.25l-1.39-.82c-2.82-1.65-3.74-3.2-3.74-5.23 0-2.82 2.71-4.64 6-4.64a14.24 14.24 0 0 1 3.39.38c.22 0 .33.14.33.3s-.08 1-.08 2.76c0 .49-.11.74-.3.74s-.24-.14-.24-.41A2.6 2.6 0 0 0 81 287a3.21 3.21 0 0 0-2.66-1.09c-1.71 0-3.25.9-3.25 2.47 0 1 .38 1.85 2.52 3l1 .54c3.14 1.74 4.12 3.5 4.12 5.59a4.93 4.93 0 0 1-2.39 4.32 7 7 0 0 1-4 1 10.21 10.21 0 0 1-3.85-.64zm15.42-10.47v-4.89c0-.74-.29-1.05-.81-1.22a3.1 3.1 0 0 0-.87-.1c-.24 0-.38-.06-.38-.27s.19-.2.57-.2l3.2.06 3.07-.06c.3 0 .49.06.49.2s-.14.27-.38.27a3 3 0 0 0-.71.08c-.65.1-.84.43-.89 1.24l-.06 4.89v4.07l.11 5c.08.63.25 1 1 1.09a9.74 9.74 0 0 0 1.22.08c.27 0 .38.14.38.24s-.19.25-.46.25c-1.57 0-3.2-.08-3.85-.08l-3.12.08c-.3 0-.46-.08-.46-.25s.08-.24.38-.24a3.79 3.79 0 0 0 .84-.08c.49-.11.62-.44.7-1.11.11-.95.11-2.8.11-5zm12.54 7.62c0 1.79.35 2.33.81 2.5a4.25 4.25 0 0 0 1.25.16c.27 0 .41.11.41.24s-.22.25-.54.25c-1.55 0-2.66-.08-3.1-.08l-2.57.08c-.33 0-.55 0-.55-.25s.16-.24.38-.24a5 5 0 0 0 1.09-.11c.62-.16.7-.78.73-2.79l.22-13.68c0-.46.16-.78.41-.78s.62.35 1 .76 3.88 4 7.35 7.35l5.15 5.18h.11l-.24-10.25c0-1.41-.25-1.82-.82-2a4.13 4.13 0 0 0-1.24-.13c-.3 0-.39-.11-.39-.25s.25-.22.6-.22l3 .06 2.33-.06c.33 0 .55 0 .55.22s-.14.25-.41.25a2.46 2.46 0 0 0-.73.08c-.65.19-.84.59-.87 1.9l-.2 14.47c0 .51-.19.73-.38.73a1.39 1.39 0 0 1-1-.49l-7-6.64-5.59-5.7h-.08zm21.44.95a8.89 8.89 0 0 1-.19-13.13c1.73-1.52 4-2.44 7.57-2.44a25.37 25.37 0 0 1 3.47.24l2.39.38c.27 0 .35.14.35.27s0 .46-.11 1.28-.05 2-.08 2.5-.11.56-.32.56-.25-.19-.25-.48a3.25 3.25 0 0 0-.92-2.15 6.77 6.77 0 0 0-4.61-1.35 6.47 6.47 0 0 0-4.51 1.3c-1.76 1.52-2.2 3.74-2.2 6a7.7 7.7 0 0 0 7.44 8.08c2.12 0 3.28-.16 4.23-1.22a3.72 3.72 0 0 0 .82-1.55c.05-.35.1-.46.29-.46s.28.22.28.41a20.91 20.91 0 0 1-.52 3.06.81.81 0 0 1-.62.68 14 14 0 0 1-4.32.52c-3.25 0-6.02-.68-8.19-2.5zm18.75-8.57v-4.89c0-.74-.27-1-1-1.24a4 4 0 0 0-1-.08c-.24 0-.4-.09-.4-.25s.19-.22.54-.22l3.45.06h6.51a9.9 9.9 0 0 0 1-.14c.14 0 .27-.11.38-.11s.16.11.16.22a11.73 11.73 0 0 0-.19 1.49c0 .25-.08 1.25-.13 1.52 0 .11-.08.38-.27.38s-.19-.11-.19-.3a2.11 2.11 0 0 0-.17-.84c-.19-.4-.38-.73-1.57-.84-.41-.05-3.26-.11-3.74-.11-.11 0-.17.09-.17.22v5.7c0 .13 0 .24.17.24h4.17a2 2 0 0 0 1.14-.35c.19-.17.28-.3.38-.3s.19.1.19.24 0 .52-.19 1.68c0 .47-.1 1.39-.1 1.55s0 .51-.25.51-.22-.08-.22-.18 0-.55-.08-.85c-.13-.46-.43-.81-1.33-.89-.43-.06-3.15-.11-3.74-.11-.11 0-.14.11-.14.24v5.27c.06 1.57.79 1.92 3.23 1.92a6.21 6.21 0 0 0 2.25-.3c.6-.27.87-.75 1-1.7.06-.25.11-.36.28-.36s.21.3.21.55a16.18 16.18 0 0 1-.32 2.54c-.17.6-.38.6-1.28.6-1.79 0-3.23 0-4.39-.08s-2.06 0-2.77 0h-1.36l-1.65.06c-.3 0-.46-.08-.46-.25s.08-.24.38-.24a3.79 3.79 0 0 0 .84-.08c.49-.11.62-.54.7-1.22.11-1 .11-2.8.11-4.91zm26.84-1.79v-3.56c0-.65 0-1-.41-1a20.15 20.15 0 0 0-3.14 1.3 1.41 1.41 0 0 1-.38.11.31.31 0 0 1-.22-.3.5.5 0 0 1 .27-.38c.11-.06 5.32-3.47 6.27-4.18a1.58 1.58 0 0 1 .7-.35c.25 0 .33.3.33.57l-.17 7.05v5l.12 6.11c.08.86.21 1.27 1.08 1.46a17 17 0 0 0 1.79.16.25.25 0 0 1 .24.27c0 .19-.13.25-.43.25-2.06 0-3.8-.08-4.53-.08l-4.64.08c-.3 0-.46-.06-.46-.25s.11-.27.22-.27a16.94 16.94 0 0 0 2.17-.19c.86-.19 1-.57 1.08-1.43.11-1.2.16-3.51.14-6.11zm24.23-.93c0 7.59-6.65 12.37-10 13.94a.81.81 0 0 1-.49.11.29.29 0 0 1-.24-.27c0-.19.19-.35.32-.46a15.16 15.16 0 0 0 7.06-12.56c0-4.8-2-6.92-4.13-6.92s-3.25 1.74-3.25 4c0 4.15 2.69 5.13 3.61 5.13a4.1 4.1 0 0 0 1.84-.33c.3-.16.44-.29.54-.29a.23.23 0 0 1 .22.24.67.67 0 0 1-.13.3 5 5 0 0 1-3.59 1.25 5.23 5.23 0 0 1-5.53-5.24c0-3.66 2.77-6.32 6.94-6.32 4.42.02 6.83 3.27 6.83 7.42zm2.5 8.55c0-3 2.37-5 5-6.08-2.25-1.16-3.94-2.65-3.94-5 0-2.12 1.82-4.91 6.43-4.91 3.31 0 5.57 1.52 5.57 4.15 0 2.85-2.5 4.45-4 5 1.92 1 4.93 2.71 4.93 6.07s-2.63 6-7.19 6c-4.01.09-6.8-1.89-6.8-5.23zm7 4.07a3.83 3.83 0 0 0 3.83-4.1c0-2.71-2.17-4-4.59-5.39a6 6 0 0 0-3.2 5.26 4 4 0 0 0 3.99 4.23zm.17-18.85a3.08 3.08 0 0 0-3.32 3.2c0 1.68 1.17 2.79 3.64 4.17a4.31 4.31 0 0 0 2.66-4.15 3 3 0 0 0-2.95-3.22zm9.06 14.29c-.32 0-.67-.11-.67-.4a1.16 1.16 0 0 1 .35-.71c.19-.22 10.31-13.59 10.53-13.86s.43-.49.7-.49.33.19.33.46V295h2.09a4.16 4.16 0 0 0 1.25-.27c.13 0 .24.1.24.32a6.64 6.64 0 0 1-.46 1.71c-.14.24-.27.35-.73.35h-2.39c0 .87 0 2.09.08 3.29.08.84.24 1.32 1.14 1.51a7.14 7.14 0 0 0 1.22.11c.14 0 .24.09.24.27s-.13.25-.43.25c-1.52 0-3.25-.08-3.82-.08-.77 0-2.23.08-3.72.08-.3 0-.44-.06-.44-.25s.08-.27.22-.27.84 0 1.28-.08c1-.11 1.22-.7 1.27-1.54.11-1.2.08-2.42.08-3.29zm8.33-10.5h-.08a634.34 634.34 0 0 1-6.05 8.39h6.13z"></path><defs><path id="B" d="M51.27 300.75a1.64 1.64 0 0 1 1.66-1.65 1.56 1.56 0 0 1 1.65 1.57 1.65 1.65 0 0 1-1.68 1.74 1.59 1.59 0 0 1-1.63-1.66z"></path></defs></svg> 