<?xml version="1.0" encoding="UTF-8"?> <svg xmlns="http://www.w3.org/2000/svg" xmlns:v="https://vecta.io/nano" viewBox="0 0 270.81 303.03" fill="#fff"><path d="M135.66 0C61.12 0 .48 60.56.48 135s60.64 135 135.18 135 135.15-60.57 135.15-135S210.18 0 135.66 0zm0 266.48C63.06 266.48 4 207.49 4 135S63.06 3.51 135.66 3.51 267.28 62.5 267.28 135s-59.04 131.48-131.62 131.48zM135.57 17A117.23 117.23 0 1 0 253 134.24 117.3 117.3 0 0 0 135.57 17zm-6.49 153.39a57.64 57.64 0 0 1-21.34 27.14 54.05 54.05 0 0 1-16.94 8.28c-9.7 2.64-40.91 1.5-40.91 1.5V74.42l30.17-25.51v72.54c6.11-9.54 12.77-15.2 19.38-17a20 20 0 0 1 18.19 3.55q8.22 6.23 12.6 19.77a62.38 62.38 0 0 1-1.15 42.64zM139.92 231V94.33h-20.45l9.11-21.68H139l-.1-9.57 30.65-31.71.23 41.28h22.86L170.16 94.3v84.17h25.56zm56.36-153.75a16.66 16.66 0 1 1 16.65 16.5 16.58 16.58 0 0 1-16.65-16.5zm6.66 130.5v-84.91l28.57-26.79v77.11zm-104.5-85.01c-3.11-2.56-6.23-3.39-9.34-2.56a10.24 10.24 0 0 0-6.33 5.12 19.88 19.88 0 0 0-2.24 10.09l.68 59.06 10.19-.31s8.43 1.33 11.14-5.9a87.61 87.61 0 0 0 5.33-28.43 83.25 83.25 0 0 0-3.78-28.1c-1.31-3.97-3.17-6.97-5.65-8.97zM51.76 300.75a1.63 1.63 0 0 1 1.65-1.65 1.56 1.56 0 0 1 1.66 1.57 1.66 1.66 0 0 1-1.69 1.74 1.58 1.58 0 0 1-1.62-1.66zm6.78 0a1.64 1.64 0 0 1 1.66-1.65 1.56 1.56 0 0 1 1.65 1.57 1.65 1.65 0 0 1-1.68 1.74 1.59 1.59 0 0 1-1.63-1.66zm6.78 0A1.64 1.64 0 0 1 67 299.1a1.56 1.56 0 0 1 1.65 1.57 1.65 1.65 0 0 1-1.65 1.74 1.59 1.59 0 0 1-1.68-1.66zm7.68 1.44c-.38-.16-.46-.27-.46-.79l.13-3.06c.03-.38.11-.6.3-.6s.24.22.24.38a4.45 4.45 0 0 0 .22 1.19c.52 1.72 2.31 2.28 3.8 2.28a3 3 0 0 0 3.31-2.93c0-1-.24-2-2.36-3.25l-1.38-.82c-2.8-1.65-3.8-3.2-3.8-5.23 0-2.82 2.72-4.64 6-4.64a14.41 14.41 0 0 1 3.4.38c.21 0 .32.14.32.3s-.08 1-.08 2.76c0 .49-.11.74-.3.74s-.24-.14-.24-.41a2.6 2.6 0 0 0-.63-1.52 3.21 3.21 0 0 0-2.66-1.09c-1.7 0-3.25.9-3.25 2.47 0 1 .38 1.85 2.52 3l1 .54c3.15 1.74 4.12 3.5 4.12 5.59a4.94 4.94 0 0 1-2.38 4.32 7 7 0 0 1-4 1 10.15 10.15 0 0 1-3.82-.61zm15.39-10.47v-4.89c0-.74-.3-1.05-.82-1.22a3.07 3.07 0 0 0-.86-.1c-.25 0-.39-.06-.39-.27s.19-.2.57-.2l3.21.06 3.06-.06c.3 0 .49.06.49.2s-.13.27-.38.27a3 3 0 0 0-.7.08c-.66.1-.85.43-.9 1.24s-.05 1.39-.05 4.89v4.07l.1 5c.08.63.25 1 1 1.09a9.74 9.74 0 0 0 1.22.08c.28 0 .38.14.38.24s-.19.25-.46.25c-1.57 0-3.2-.08-3.85-.08l-3.12.08c-.3 0-.46-.08-.46-.25s.08-.24.38-.24a3.79 3.79 0 0 0 .84-.08c.49-.11.62-.44.71-1.11.1-.95.1-2.8.1-5zm12.54 7.62c.06 1.79.35 2.33.81 2.5a4.25 4.25 0 0 0 1.26.16c.27 0 .41.11.41.24s-.22.25-.54.25c-1.55 0-2.66-.08-3.1-.08l-2.57.08c-.33 0-.54 0-.54-.25s.16-.24.38-.24a5 5 0 0 0 1.08-.11c.62-.16.7-.78.73-2.79l.22-13.68c0-.46.16-.78.41-.78s.62.35 1 .76 3.88 4 7.35 7.35l5.15 5.18h.11l-.24-10.25c0-1.41-.25-1.82-.82-2a4.13 4.13 0 0 0-1.24-.13c-.3 0-.38-.11-.38-.25s.24-.22.59-.22l3 .06 2.34-.06c.32 0 .54 0 .54.22s-.14.25-.41.25a2.46 2.46 0 0 0-.73.08c-.65.19-.84.59-.87 1.9l-.21 14.47c0 .51-.19.73-.38.73a1.41 1.41 0 0 1-1-.49l-7-6.64-5.59-5.7h-.08zm21.44.95a8.91 8.91 0 0 1-.19-13.13c1.74-1.52 4-2.44 7.57-2.44a25.37 25.37 0 0 1 3.47.24l2.39.38c.27 0 .35.14.35.27s-.05.46-.1 1.28l-.09 2.5c-.03.5-.11.56-.32.56s-.25-.19-.25-.48a3.21 3.21 0 0 0-.92-2.15 6.77 6.77 0 0 0-4.61-1.35 6.42 6.42 0 0 0-4.5 1.3c-1.77 1.52-2.2 3.74-2.2 6a7.69 7.69 0 0 0 7.43 8.08c2.12 0 3.28-.16 4.23-1.22a3.72 3.72 0 0 0 .82-1.55c.05-.35.11-.46.3-.46s.27.22.27.41a19.63 19.63 0 0 1-.52 3.06.81.81 0 0 1-.62.68 14 14 0 0 1-4.31.52c-3.26 0-6.03-.68-8.2-2.5zm18.75-8.57v-4.89c0-.74-.27-1-1-1.24a4.09 4.09 0 0 0-.95-.08c-.25 0-.41-.09-.41-.25s.19-.22.54-.22l3.45.06h6.51a9.9 9.9 0 0 0 1-.14c.14 0 .27-.11.38-.11s.17.11.17.22a10.57 10.57 0 0 0-.2 1.49c0 .25-.08 1.25-.13 1.52 0 .11-.08.38-.27.38s-.19-.11-.19-.3a2.27 2.27 0 0 0-.16-.84c-.19-.4-.38-.73-1.58-.84-.4-.05-3.25-.11-3.74-.11-.11 0-.16.09-.16.22v5.7c0 .13 0 .24.16.24h4.18a2 2 0 0 0 1.14-.35c.18-.17.27-.3.38-.3s.18.1.18.24-.05.52-.18 1.68c-.06.47-.11 1.39-.11 1.55s0 .51-.25.51-.21-.08-.21-.18 0-.55-.09-.85c-.13-.46-.43-.81-1.32-.89-.44-.06-3.15-.11-3.75-.11-.11 0-.13.11-.13.24v5.27c0 1.57.78 1.92 3.22 1.92a6.29 6.29 0 0 0 2.26-.3c.59-.27.86-.75 1-1.7 0-.25.1-.36.27-.36s.21.3.21.55a15.08 15.08 0 0 1-.32 2.54c-.16.6-.38.6-1.28.6-1.79 0-3.22 0-4.39-.08s-2.06 0-2.77 0h-1.36l-1.65.06c-.3 0-.46-.08-.46-.25s.08-.24.38-.24a3.79 3.79 0 0 0 .84-.08c.49-.11.62-.54.71-1.22.1-1 .1-2.8.1-4.91zm26.88-1.79v-3.56c0-.65 0-1-.4-1a20.24 20.24 0 0 0-3.15 1.3 1.31 1.31 0 0 1-.38.11.31.31 0 0 1-.22-.3.5.5 0 0 1 .27-.38c.11-.06 5.32-3.47 6.27-4.18a1.57 1.57 0 0 1 .71-.35c.24 0 .32.3.32.57l-.16 7.05v5l.11 6.11c.08.86.21 1.27 1.08 1.46a17.28 17.28 0 0 0 1.79.16.26.26 0 0 1 .25.27c0 .19-.14.25-.44.25-2.06 0-3.8-.08-4.53-.08l-4.64.08c-.3 0-.46-.06-.46-.25s.11-.27.22-.27a16.94 16.94 0 0 0 2.17-.19c.87-.19 1-.57 1.09-1.43.1-1.2.16-3.51.13-6.11zm24.19-.93c0 7.59-6.64 12.37-10 13.94a.78.78 0 0 1-.48.11.3.3 0 0 1-.25-.27c0-.19.19-.35.33-.46a15.18 15.18 0 0 0 7.05-12.56c0-4.8-2-6.92-4.12-6.92s-3.26 1.74-3.26 4c0 4.15 2.69 5.13 3.61 5.13a4.1 4.1 0 0 0 1.84-.33c.3-.16.44-.29.55-.29a.23.23 0 0 1 .21.24.67.67 0 0 1-.13.3 5 5 0 0 1-3.58 1.25 5.23 5.23 0 0 1-5.54-5.24c0-3.66 2.77-6.32 7-6.32 4.36.02 6.77 3.27 6.77 7.42zm2.51 8.55c0-3 2.36-5 5-6.08-2.25-1.16-3.93-2.65-3.93-5 0-2.12 1.81-4.91 6.42-4.91 3.32 0 5.57 1.52 5.57 4.15 0 2.85-2.5 4.45-4 5 1.92 1 4.94 2.71 4.94 6.07s-2.64 6-7.19 6c-4.02.09-6.81-1.89-6.81-5.23zm7 4.07a3.83 3.83 0 0 0 3.83-4.1c0-2.71-2.17-4-4.58-5.39a6 6 0 0 0-3.21 5.26 4.05 4.05 0 0 0 3.98 4.23zm.17-18.85a3.08 3.08 0 0 0-3.31 3.2c0 1.68 1.16 2.79 3.63 4.17a4.31 4.31 0 0 0 2.66-4.15 3 3 0 0 0-2.96-3.22zm9.06 14.29c-.33 0-.68-.11-.68-.4a1.16 1.16 0 0 1 .35-.71c.19-.22 10.31-13.59 10.53-13.86s.43-.49.7-.49.33.19.33.46V295h2.09a4.16 4.16 0 0 0 1.25-.27c.13 0 .24.1.24.32a6.64 6.64 0 0 1-.46 1.71c-.13.24-.27.35-.73.35h-2.39c0 .87 0 2.09.08 3.29.08.84.25 1.32 1.14 1.51a7.14 7.14 0 0 0 1.22.11.24.24 0 0 1 .25.27c0 .19-.14.25-.44.25-1.52 0-3.25-.08-3.82-.08-.76 0-2.23.08-3.72.08-.3 0-.43-.06-.43-.25s.08-.27.21-.27.84 0 1.28-.08c1-.11 1.22-.7 1.27-1.54.11-1.2.09-2.42.09-3.29zm8.33-10.5h-.09c-.62.9-5.12 7.17-6 8.39h6.14z"></path></svg> 